HIERARCHY
ROOT Hips
{
	OFFSET -14.64140 90.27770 -84.91600
	CHANNELS 6 Xposition Yposition Zposition Zrotation Xrotation Yrotation
	JOINT Spine
	{
		OFFSET 0.00000 13.20850 -1.60436
		CHANNELS 3 Zrotation Xrotation Yrotation
		JOINT Spine1
		{
			OFFSET 0.00000 8.61716 0.00000
			CHANNELS 3 Zrotation Xrotation Yrotation
			JOINT Spine2
			{
				OFFSET 0.00000 8.61717 0.00000
				CHANNELS 3 Zrotation Xrotation Yrotation
				JOINT Spine3
				{
					OFFSET 0.00000 8.61717 0.00000
					CHANNELS 3 Zrotation Xrotation Yrotation
					JOINT Neck
					{
						OFFSET 0.00000 11.07920 1.10792
						CHANNELS 3 Zrotation Xrotation Yrotation
						JOINT Neck1
						{
							OFFSET 0.00000 7.08032 0.00000
							CHANNELS 3 Zrotation Xrotation Yrotation
							JOINT Head
							{
								OFFSET 0.00000 7.08031 0.00000
								CHANNELS 3 Zrotation Xrotation Yrotation
								End site
								{
									OFFSET 0.00000 0.00000 0.00000
								}
							}
						}
					}
					JOINT RightShoulder
					{
						OFFSET -0.01000 7.91373 5.19711
						CHANNELS 3 Zrotation Xrotation Yrotation
						JOINT RightArm
						{
							OFFSET -18.41580 0.00000 0.00000
							CHANNELS 3 Zrotation Xrotation Yrotation
							JOINT RightForeArm
							{
								OFFSET -29.11090 0.00000 0.00000
								CHANNELS 3 Zrotation Xrotation Yrotation
								JOINT RightHand
								{
									OFFSET -24.65040 0.00000 0.00000
									CHANNELS 3 Zrotation Xrotation Yrotation
									JOINT RightHandThumb1
									{
										OFFSET -5.35114 -0.85590 3.97906
										CHANNELS 3 Zrotation Xrotation Yrotation
										JOINT RightHandThumb2
										{
											OFFSET -4.52789 0.00000 0.00000
											CHANNELS 3 Zrotation Xrotation Yrotation
											JOINT RightHandThumb3
											{
												OFFSET -2.46976 0.00000 0.00000
												CHANNELS 3 Zrotation Xrotation Yrotation
												End site
												{
													OFFSET 0.00000 0.00000 0.00000
												}
											}
										}
									}
									JOINT RightHandIndex1
									{
										OFFSET -14.26970 0.00000 2.88139
										CHANNELS 3 Zrotation Xrotation Yrotation
										JOINT RightHandIndex2
										{
											OFFSET -5.48836 0.00000 0.00000
											CHANNELS 3 Zrotation Xrotation Yrotation
											JOINT RightHandIndex3
											{
												OFFSET -3.01859 0.00000 0.00000
												CHANNELS 3 Zrotation Xrotation Yrotation
												End site
												{
													OFFSET 0.00000 0.00000 0.00000
												}
											}
										}
									}
									JOINT RightHandMiddle1
									{
										OFFSET -14.26970 0.00000 -0.09147
										CHANNELS 3 Zrotation Xrotation Yrotation
										JOINT RightHandMiddle2
										{
											OFFSET -6.17441 0.00000 0.00000
											CHANNELS 3 Zrotation Xrotation Yrotation
											JOINT RightHandMiddle3
											{
												OFFSET -3.56743 0.00000 0.00000
												CHANNELS 3 Zrotation Xrotation Yrotation
												End site
												{
													OFFSET 0.00000 0.00000 0.00000
												}
											}
										}
									}
									JOINT RightHandRing1
									{
										OFFSET -12.69180 0.00000 -3.06433
										CHANNELS 3 Zrotation Xrotation Yrotation
										JOINT RightHandRing2
										{
											OFFSET -5.62556 0.00000 0.00000
											CHANNELS 3 Zrotation Xrotation Yrotation
											JOINT RightHandRing3
											{
												OFFSET -3.56744 0.00000 0.00000
												CHANNELS 3 Zrotation Xrotation Yrotation
												End site
												{
													OFFSET 0.00000 0.00000 0.00000
												}
											}
										}
									}
									JOINT RightHandPinky1
									{
										OFFSET -11.11390 0.00000 -6.03719
										CHANNELS 3 Zrotation Xrotation Yrotation
										JOINT RightHandPinky2
										{
											OFFSET -4.52789 0.00000 0.00000
											CHANNELS 3 Zrotation Xrotation Yrotation
											JOINT RightHandPinky3
											{
												OFFSET -2.46976 0.00000 0.00000
												CHANNELS 3 Zrotation Xrotation Yrotation
												End site
												{
													OFFSET 0.00000 0.00000 0.00000
												}
											}
										}
									}
								}
							}
						}
					}
					JOINT LeftShoulder
					{
						OFFSET 0.01000 7.91373 5.19711
						CHANNELS 3 Zrotation Xrotation Yrotation
						JOINT LeftArm
						{
							OFFSET 18.41580 0.00000 0.00000
							CHANNELS 3 Zrotation Xrotation Yrotation
							JOINT LeftForeArm
							{
								OFFSET 29.11090 0.00000 0.00000
								CHANNELS 3 Zrotation Xrotation Yrotation
								JOINT LeftHand
								{
									OFFSET 24.65040 0.00000 0.00000
									CHANNELS 3 Zrotation Xrotation Yrotation
									JOINT LeftHandThumb1
									{
										OFFSET 5.35114 -0.85590 3.97906
										CHANNELS 3 Zrotation Xrotation Yrotation
										JOINT LeftHandThumb2
										{
											OFFSET 4.52789 0.00000 0.00000
											CHANNELS 3 Zrotation Xrotation Yrotation
											JOINT LeftHandThumb3
											{
												OFFSET 2.46977 0.00000 0.00000
												CHANNELS 3 Zrotation Xrotation Yrotation
												End site
												{
													OFFSET 0.00000 0.00000 0.00000
												}
											}
										}
									}
									JOINT LeftHandIndex1
									{
										OFFSET 14.26970 0.00000 2.88139
										CHANNELS 3 Zrotation Xrotation Yrotation
										JOINT LeftHandIndex2
										{
											OFFSET 5.48836 0.00000 0.00000
											CHANNELS 3 Zrotation Xrotation Yrotation
											JOINT LeftHandIndex3
											{
												OFFSET 3.01859 0.00000 0.00000
												CHANNELS 3 Zrotation Xrotation Yrotation
												End site
												{
													OFFSET 0.00000 0.00000 0.00000
												}
											}
										}
									}
									JOINT LeftHandMiddle1
									{
										OFFSET 14.26970 0.00000 -0.09147
										CHANNELS 3 Zrotation Xrotation Yrotation
										JOINT LeftHandMiddle2
										{
											OFFSET 6.17440 0.00000 0.00000
											CHANNELS 3 Zrotation Xrotation Yrotation
											JOINT LeftHandMiddle3
											{
												OFFSET 3.56744 0.00000 0.00000
												CHANNELS 3 Zrotation Xrotation Yrotation
												End site
												{
													OFFSET 0.00000 0.00000 0.00000
												}
											}
										}
									}
									JOINT LeftHandRing1
									{
										OFFSET 12.69180 0.00000 -3.06433
										CHANNELS 3 Zrotation Xrotation Yrotation
										JOINT LeftHandRing2
										{
											OFFSET 5.62556 0.00000 0.00000
											CHANNELS 3 Zrotation Xrotation Yrotation
											JOINT LeftHandRing3
											{
												OFFSET 3.56744 0.00000 0.00000
												CHANNELS 3 Zrotation Xrotation Yrotation
												End site
												{
													OFFSET 0.00000 0.00000 0.00000
												}
											}
										}
									}
									JOINT LeftHandPinky1
									{
										OFFSET 11.11390 0.00000 -6.03719
										CHANNELS 3 Zrotation Xrotation Yrotation
										JOINT LeftHandPinky2
										{
											OFFSET 4.52789 0.00000 0.00000
											CHANNELS 3 Zrotation Xrotation Yrotation
											JOINT LeftHandPinky3
											{
												OFFSET 2.46976 0.00000 0.00000
												CHANNELS 3 Zrotation Xrotation Yrotation
												End site
												{
													OFFSET 0.00000 0.00000 0.00000
												}
											}
										}
									}
								}
							}
						}
					}
					JOINT pCube4
					{
						OFFSET 0.00000 10.91090 1.10792
						CHANNELS 3 Zrotation Xrotation Yrotation
						End site
						{
							OFFSET 0.00000 0.00000 0.00000
						}
					}
				}
			}
		}
	}
	JOINT RightUpLeg
	{
		OFFSET -9.98441 0.00000 0.00000
		CHANNELS 3 Zrotation Xrotation Yrotation
		JOINT RightLeg
		{
			OFFSET 0.00000 -42.11790 0.00000
			CHANNELS 3 Zrotation Xrotation Yrotation
			JOINT RightFoot
			{
				OFFSET 0.00000 -45.00020 -0.00001
				CHANNELS 3 Zrotation Xrotation Yrotation
				JOINT RightForeFoot
				{
					OFFSET 0.00000 -3.74820 0.00000
					CHANNELS 3 Zrotation Xrotation Yrotation
					JOINT RightToeBase
					{
						OFFSET 0.00000 0.06325 14.43120
						CHANNELS 3 Zrotation Xrotation Yrotation
						End site
						{
							OFFSET 0.00000 0.00000 0.00000
						}
					}
				}
			}
		}
	}
	JOINT LeftUpLeg
	{
		OFFSET 9.98441 0.00000 0.00000
		CHANNELS 3 Zrotation Xrotation Yrotation
		JOINT LeftLeg
		{
			OFFSET 0.00000 -42.11800 0.00000
			CHANNELS 3 Zrotation Xrotation Yrotation
			JOINT LeftFoot
			{
				OFFSET 0.00000 -45.00070 0.00000
				CHANNELS 3 Zrotation Xrotation Yrotation
				JOINT LeftForeFoot
				{
					OFFSET 0.00000 -3.74824 0.00000
					CHANNELS 3 Zrotation Xrotation Yrotation
					JOINT LeftToeBase
					{
						OFFSET 0.00000 0.06325 14.43110
						CHANNELS 3 Zrotation Xrotation Yrotation
						End site
						{
							OFFSET 0.00000 0.00000 0.00000
						}
					}
				}
			}
		}
	}
}
MOTION
Frames: 4
Frame Time: 0.050000
0.0025424725363216937 0.017772854205914894 -0.002770801729340763 -0.008230075850065554 -0.04173248145760963 -0.020594612085827496 -2.4470040573215663 -0.47783933616270746 -0.8081224259467664 -0.9562556672429026 3.6529858395567145 0.4199927889090718 -1.1420530107878208 -2.057478014449405 -0.4693644477437286 -0.23372222098438575 0.2508240177703932 -0.7518501561612969 -0.300219763041446 13.97234832581671 1.0408458571261436 0.20155777861353807 1.251088949963299 0.9145010226661957 -0.020178002667259692 -12.89625015064831 0.11455066387499974 -4.799457133985177 1.7934227870309718 -15.210095927263673 70.56121672162166 18.622939097115903 10.51946472751711 9.995124059447775 2.987358469358714 104.73501778611542 15.496267066856541 -0.4678092167326352 -4.289137924325791 4.555325124585176 -0.10292924731000945 -1.6267512496396137 0.031023548415718888 0.025141587034425286 -56.22659253864146 -0.0191101942896291 0.049468144885729905 -56.196635803341515 -38.76035943368003 0.010294497545892588 -0.013535351387435184 0.04118415779916813 0.0030522202281231298 -0.03833975831613119 0.013050594555710017 0.0337271960491772 -0.04791307254216309 -36.66111507237118 -0.015748009185402752 0.0401387789827665 0.01542566608986293 0.028628396544139144 -0.02613442849696398 0.0153029556863996 0.0067271171513521785 -0.017326944683210003 -19.78995651858097 0.006199376641545011 -0.01003968738559144 -0.016996589675312195 0.007459894726392714 -0.02633777644906772 0.022535089424091447 0.026766193692727983 -0.032792652391005456 24.056907892313717 0.013403831551272312 0.009196045297449646 28.902327293434894 0.028156021245465342 0.02499927453644484 28.886586010840805 -0.006055524009040531 0.03556161511153862 6.892372580704788 1.6353139023604477 14.149573475754673 -69.77315757637024 27.187622994036204 -10.052440583885737 -1.8812098754259217 -2.9188500202930605 -103.08457700194285 -10.182986906104588 -7.7913220059200885 4.0301164663863975 -0.5001415713079502 0.06965167475433 -8.168689921644798 0.02957544205816728 -0.045545571820541926 44.5624924318687 -0.0037194423281054667 -0.03692458172796849 44.582789332801596 12.445153660485252 -0.029216378743657533 0.037089966497544785 0.02912204621810157 0.010165623025995246 -0.006928616312460963 -0.0072500382797172315 -0.012774388271502127 -0.002128423525082966 11.105581449081356 -0.01057950453549873 0.022418736149679073 -0.02782769151669526 0.02474905927484591 -0.038419173838651385 -0.0035362149254739017 -0.02633005723951545 -0.010725458653009811 4.76594509132241 0.002742764202930327 -0.029969533147458212 -0.006831409957502864 -0.02369032468439619 -0.009303345993216278 0.017175534357997672 -0.04039860476275655 -0.020013613370181885 -5.627424693277704 -0.014988329204815383 -0.03869446801316693 -6.737019378862967 0.001360473909113857 0.048785380079279114 -6.702801620831222 0.03775568433328398 0.03331196545093395 0.03691081634849023 0.0031531273781952233 -0.0407677140954301 8.039257455137605 3.466631922984891 -19.21513122183956 0.00856315514968803 10.370672441955184 -0.03316857833181426 -5.5964377625618225 -15.619098337381084 3.222680005064051 -0.009855211928397388 -0.009987470292188319 -0.04016444343228816 -0.025356693824697175 4.736647020051756 -0.002333541925218155 12.472379450513763 -8.277393151684139 6.932326938570755 0.01845876798190413 46.40662316283163 0.021010143483526634 -4.317996310377728 -14.796965469977906 -3.873196142138286 0.02379651225734524 0.049734075700183 -0.001304199517000605 -0.019690336590274447 -10.721866361493761 0.019299975150213873 
0.02177064660206155 0.01334428933986359 0.04906562504061266 0.0007500102466073814 0.02758728691999329 0.016438556455277812 -2.4295716746177427 -0.39320422742959826 -0.8730261308159795 -1.0022056414534986 3.7110581433810257 0.41832236752410756 -1.1359119195092138 -2.0224377388731156 -0.4151130838507864 -0.2618406750774607 0.27854373531279775 -0.6951263513709646 -0.3080196201288041 13.78334972433449 1.0654963100111878 0.2659597587866202 1.0804074036970237 1.0566484598013273 -0.05953697916985484 -13.027935108920603 0.11988787740161339 -4.508372324520661 1.7287011128940502 -15.149817452604678 70.57833422614618 19.575157583227444 10.108821791991884 10.1995059310559 2.7254810288105205 104.66831838752431 15.578396930653389 -0.48116129010760633 -4.356098014258399 4.560029696788047 -0.11688881812062935 -1.5539848561390721 0.016453332471027843 0.04162034850775205 -56.271622393293356 -0.021689139401119 0.04090532669567829 -56.199235214193415 -38.776234834927195 0.030639590634472195 0.024399107696799326 -0.016376947232851092 -0.021789369588410046 0.019532331164212862 0.037905693383684796 0.0007536626347782275 0.044184534849701 -36.67747022048645 0.045999722536505944 -0.01977834254698352 0.008803149562223023 0.012982389452535513 0.017087194425616792 -0.0022837412781760245 -0.008362907579434767 0.005644549963221999 -19.7156099720845 0.025197992236230912 -0.003267450627566149 0.023935714482788136 -0.029412394545981133 -0.0017594012301318867 -0.0020044879485097964 -0.014960111176300445 -0.0005864696419996382 24.02588284986868 -0.03678007975916468 -0.03229129986747642 28.818840098624367 -0.014012014705321511 0.009766255698100908 28.893344908985657 -0.0005093543322720126 -0.04479840373511906 6.698592449302549 1.532017662174552 14.107820916870644 -69.72903252659069 27.844601061013368 -9.896188024155755 -3.2976138785137197 -2.457687076727581 -102.16549893873153 -10.837745673859963 -7.839393217289256 4.200188251611739 -0.465723193725473 0.06301931281490872 -8.161165942248807 0.008450107497099365 -0.04258800713627945 44.563548164650626 -0.01992734544189222 -0.0008379696207698168 44.554047279624925 12.487092517530828 0.006389550294384461 0.034887858918034385 -0.03600110302920667 -0.014339610577481805 0.0316882040208391 0.0024607846737657217 -0.0005563252313833831 -0.033423559532361376 11.105567716980719 -0.009464984566642494 -0.0007480509277236453 -0.014990932446583751 0.029274167011689833 -0.00964081643920952 -0.021936242430354063 -0.04837204051640897 -0.02233014549339303 4.728631950435989 -0.030419880147470997 -0.047263640519223375 -0.015302984192702845 -0.005274102661354419 0.0037034924592274383 -0.02989412637244146 -0.021050492566703705 0.0029533162469220927 -5.570714192410939 0.003993191269345747 -0.005179634644728742 -6.719256233999835 -0.0053260835803022434 0.01779133095685519 -6.734683764368223 0.005581111721919022 -0.042472230304020954 -0.0029064718158657585 0.023205878154544016 -0.016798491777956486 8.038646521329412 3.4692164238818606 -19.255538674579597 0.020870714216395154 10.380795557906787 0.03272554658277765 -5.6643198242983175 -15.617117757579418 3.2237718038363843 -0.028582457454970275 0.03933449365331041 0.0272979832307443 -0.01777389349606787 4.700564181240266 0.029280814356454434 12.489273458267204 -8.19862567543994 6.848829032993622 0.004211397035304517 46.385976083176025 0.04689755292712467 -4.3343695918167695 -14.762541279759846 -3.7959908535249536 0.02833911088006105 0.045626857439291665 0.04679386667561751 0.04450369495384893 -10.75690852450701 -0.024333063868170506 
0.0399002068792062 -0.047219859931504675 0.024547273239169977 -0.04097047201539094 0.010650084324884587 -0.005199721332901187 -2.3141682884957215 -0.3147425852671145 -0.8797135121782287 -0.9911978071105265 3.723484322839972 0.38262376281516486 -1.1558029168098725 -1.9348156661949159 -0.48917420389211097 -0.25709700804408175 0.21743671437867518 -0.7219310580873612 -0.3580461210141984 13.679135110150918 1.1049656209186254 0.23315779721 1.0297015550191242 1.0483012911076435 -0.11380530995951313 -13.21051909759918 0.10755184130107036 -4.358914419578775 1.7361367022716099 -15.087734208419857 70.761718899423 19.645318916758086 10.266816989585955 10.957826512524976 2.650865781338012 104.30188118541076 15.619975333902106 -0.49769804307026044 -4.300040106587385 4.5489856412120355 -0.13079065625883723 -1.590040980265008 0.030791371600061696 0.033292340902318494 -56.223996901881186 -0.004093855682709792 -0.009658436069676835 -56.240281663156466 -38.75090567969762 0.01939861037010086 -0.043939702172394575 -0.0018139233854292903 -0.002998401964422831 -0.025902082674420384 -0.01949067669705301 -0.049934319561210104 -0.01052305912363255 -36.68338143577483 -0.027370346563297517 0.04150236086818359 -0.0009116460021317758 0.03762245176805963 -0.046195062502159746 -0.035576599909655976 0.023688332755501217 -0.006442392326243815 -19.735415240465645 0.020647799195844443 0.027026618435904076 0.04296390296887112 0.034597421692209654 -0.0014683339659266443 -0.0015025392881638446 0.006207412653188 0.018545421164872913 24.089809646017414 0.00801532234786647 -0.027224091304012522 28.90014787742732 0.047716108771014454 -0.028529046233440544 28.860233612328255 0.018312476926560413 0.026828249755636677 6.546532367956832 1.5132074060176954 14.051209959847789 -69.76794890863238 27.932574426217496 -9.978468490997377 -5.0400044097933545 -1.8623548989938394 -101.42083962965387 -11.021428329771732 -7.624015932993679 4.220521237160698 -0.4693998775658313 0.019092967846207134 -8.122404657950973 0.044744155897822074 0.01700432116550526 44.53465659474938 -0.00573186526597871 -0.01632528472323603 44.57498673108955 12.510033567931966 0.04723962782927173 0.015055120843663339 0.04635008684254859 0.027708213100815404 0.025451848481462053 0.012541926343097023 0.03693598137994911 -0.0209157509876551 11.057055904666615 -0.021733294066739628 0.04796206434291547 0.0153363076743074 -0.02658140655966375 -0.013603575998475679 -0.0493836108474576 0.04250446778110121 0.043458402052311544 4.779538534291474 0.027457227191228513 0.006902613554663148 -0.02700457485533211 0.02111324886865136 0.016033764231480112 0.04657195178397527 0.022647717961168958 0.02223341991220437 -5.609318370650046 -0.0320419593679861 0.001176245620931959 -6.679723051854954 -0.007217424449292795 0.023794219677445046 -6.710047638300855 0.0016438240691524616 0.004080550497900758 0.02992136649491016 -1.6459893254282752e-05 -0.031165052744720558 8.03127377591131 3.531972537719528 -19.241503283311225 0.009894486295460882 10.404651890930772 0.015222538798020506 -5.632678823060473 -15.65787303933019 3.1658653785888706 0.045919681570628035 0.016687620417009927 -0.04117603169590831 0.011787245604463967 4.679167417246884 0.03635751304282128 12.444271824649986 -8.246296446367825 6.92238605327569 -0.03653215053688867 46.38975089168239 0.028292626865958306 -4.356511013774029 -14.705025377030152 -3.822671132322957 0.01889895373332729 0.03572857319394113 0.016407129853635394 -0.00033609406928664575 -10.729861803808973 0.01126512038922516 
-0.005920565262192836 -0.03113998268354507 -0.04320710502700029 -0.019238681000779325 0.012684206026291223 -0.008050959201899311 -2.312702032269325 -0.2018231551161573 -0.8782309043676689 -0.9525571305329775 3.663345009694991 0.43441379507070804 -1.1541720772548125 -1.9844867915239546 -0.5101591825888007 -0.24800939268592576 0.23143119010697072 -0.749032553967443 -0.3210839210086937 13.56855656867639 1.0961957446401913 0.2302567317165146 0.9702629267567036 1.0280293972854166 -0.10916144039023962 -13.224074011060925 0.06707007113627066 -4.266924170785889 1.6306615131518092 -15.04838173751429 70.79707567153247 19.33181263629493 10.260055457252836 12.104329314692897 2.7476598887775285 103.57936882497857 15.471183855700346 -0.4704391707542296 -4.245610058751795 4.496781634675654 -0.12257213394184865 -1.6162998224344398 -0.010691804145299135 -0.02567239005097413 -56.24562033171854 -0.016059132398608483 -0.0400809654438108 -56.22356399092139 -38.74641685898249 -0.024989370702924337 0.0018084663402095557 0.0285835774065893 -0.016083748157160724 -0.024885601539580953 -0.04976893333905299 -0.021618442451652096 0.029128437912220646 -36.67580785469637 -0.022432834455381134 -0.04198860788082766 -0.029776877091326346 -0.04868500722855791 0.026274026578622295 0.037407426899474724 -0.016136545881669257 -0.006121109606819917 -19.74399326521625 -0.04546911528334822 -0.032805009638098966 -0.03458182480554241 0.02840194544001819 -0.004435927813602452 -0.024536155140829033 0.017084760110538805 -0.03858698420192598 24.079063834299276 -0.02351737428281012 0.03800192527971228 28.912936769170212 -0.03440185471232583 0.03714211082507655 28.889984971236412 0.042438385844140294 -0.04516671568454403 6.5393157514756455 1.554207370975984 14.048468657544015 -69.73439006334968 27.752844150048464 -10.338810361775872 -6.556066918097794 -1.481668982282164 -100.62099448539266 -10.902808033128732 -7.173643519536401 4.133044733950076 -0.5222907700675009 0.10366333091843283 -8.11169153386347 -0.03411653970292673 -0.0417694205700261 44.60053083066064 -0.03827899119746298 0.011309294065534901 44.58707893949974 12.457099610455407 -0.04267372366562038 0.0159107280616515 -0.020946194635704067 0.03599693124270079 -0.00909982958859189 -0.03413214914143201 0.00877930912174789 -0.019564852060317814 11.133565766034414 -0.01631040262607178 0.0058450100194315366 -0.005845864554827284 0.019356507912461126 0.02520838768951704 0.03143587641461268 0.02292985165288977 0.04587667188644034 4.816991410865194 -0.007173867373787463 -0.03396972987745357 -0.01388544992849108 -0.010422622955109545 -0.042626202952662895 0.03707683507575367 0.017339912693478947 -0.006255927710592942 -5.554648551566281 -0.03807496369132068 -0.006184022582965318 -6.688070890762714 0.019543016246804188 -0.03555229786667941 -6.6918162800344625 -0.01657291919394856 0.023865101115905604 0.020596240057047976 0.042629927630258455 -0.0014813988243557127 8.049015949184124 3.4816510205264697 -19.26917368475606 0.030616691946273276 10.438165612901154 -0.017381247674881615 -5.596233478683636 -15.64327872108857 3.235478070005483 -0.014524852807536874 -0.03765750607043551 -0.014790956621185479 -0.04372639098522071 4.695561631110718 0.04049865725297031 12.470793533083489 -8.220655456039957 6.884595509282902 -0.04630689878069186 46.34967213241178 -0.012329554780698849 -4.301247226570093 -14.705578551130841 -3.8522619359284858 -0.020956360074405846 0.02478194930076198 -0.01944815898962166 0.043369326430689206 -10.709698946113232 0.03335463649686879 
